#!OML:ASF H:\ManfredETheater\Project 1\Capture day 1\Session 1\subject.ASF
:FULLY-SPECIFIED
:DEGREES
159
root 1.35915 16.0056 -3.67046 -6.02556 3.95357 0.114448
lowerback 4.41973 -0.60946 -3.38212
upperback 0.184315 -0.946707 1.53857
thorax -2.20832 -0.431148 3.54522
lowerneck -19.0124 -1.86913 -2.53529
upperneck 23.296 -1.93994 0.355625
head 10.6709 -1.07113 0.267592
rclavicle -1.3741e-014 0
rhumerus 25.6773 3.89191 -43.3995
rradius 69.3384
rwrist 9.53461
rhand 6.39171 -21.6686
rfingers 7.12502
rthumb 31.6965 -48.9349
lclavicle -1.3741e-014 0
lhumerus 25.3244 -1.98238 59.859
lradius 74.7368
lwrist -23.3786
lhand 14.2811 16.2506
lfingers 7.12502
lthumb 39.1745 41.7204
rfemur -15.5746 -15.9233 7.94185
rtibia 64.3773
rfoot -34.0188 0.891857
rtoes -12.8733
lfemur -17.564 5.15176 -10.432
ltibia 64.2383
lfoot -35.1714 -3.19589
ltoes -13.2348
160
root 1.36037 16.005 -3.6686 -6.03002 3.96225 0.129417
lowerback 4.4239 -0.611801 -3.38872
upperback 0.181163 -0.950306 1.53886
thorax -2.21349 -0.432715 3.54958
lowerneck -19.0365 -1.86484 -2.53155
upperneck 23.3137 -1.93301 0.350508
head 10.6819 -1.06826 0.265894
rclavicle 7.67806e-015 3.10104e-014
rhumerus 25.6811 3.90101 -43.3898
rradius 69.3412
rwrist 9.5317
rhand 6.38992 -21.681
rfingers 7.12502
rthumb 31.6948 -48.9477
lclavicle 7.67806e-015 3.10104e-014
lhumerus 25.3121 -1.99298 59.8523
lradius 74.7231
lwrist -23.3773
lhand 14.2605 16.2648
lfingers 7.12502
lthumb 39.1551 41.7403
rfemur -15.5577 -15.9396 7.90936
rtibia 64.3806
rfoot -34.0292 0.907357
rtoes -12.8885
lfemur -17.5516 5.14912 -10.4528
ltibia 64.2429
lfoot -35.1747 -3.20794
ltoes -13.2385
161
root 1.36168 16.0039 -3.66735 -6.0342 3.97658 0.171734
lowerback 4.41307 -0.614358 -3.42025
upperback 0.188378 -0.955224 1.52602
thorax -2.19926 -0.435331 3.55409
lowerneck -19.0295 -1.86212 -2.52646
upperneck 23.306 -1.93176 0.353525
head 10.6776 -1.06684 0.266398
rclavicle 1.07344e-014 3.57812e-015
rhumerus 25.6826 3.88917 -43.3974
rradius 69.3394
rwrist 9.50926
rhand 6.39372 -21.6579
rfingers 7.12502
rthumb 31.6984 -48.9239
lclavicle 1.07344e-014 3.57812e-015
lhumerus 25.3214 -1.99407 59.8493
lradius 74.7174
lwrist -23.3668
lhand 14.2471 16.2745
lfingers 7.12502
lthumb 39.1425 41.7536
rfemur -15.5427 -15.9507 7.84382
rtibia 64.3899
rfoot -34.0368 0.931053
rtoes -12.8508
lfemur -17.5414 5.12339 -10.5127
ltibia 64.2474
lfoot -35.1831 -3.18324
ltoes -13.2287
162
root 1.36205 16.0036 -3.66699 -6.03339 3.9465 0.102108
lowerback 4.42099 -0.609833 -3.34661
upperback 0.18087 -0.945181 1.55107
thorax -2.21305 -0.430534 3.53809
lowerneck -19.0358 -1.85976 -2.51891
upperneck 23.3111 -1.92658 0.338527
head 10.6804 -1.06568 0.260447
rclavicle 1.49089e-016 1.19271e-014
rhumerus 25.6828 3.89706 -43.3858
rradius 69.3368
rwrist 9.49795
rhand 6.38956 -21.6686
rfingers 7.12502
rthumb 31.6944 -48.9353
lclavicle 1.49089e-016 1.19271e-014
lhumerus 25.3249 -1.98558 59.867
lradius 74.7038
lwrist -23.3824
lhand 14.2589 16.2945
lfingers 7.12502
lthumb 39.1536 41.7704
rfemur -15.5586 -15.9084 7.94023
rtibia 64.3903
rfoot -34.0349 0.889681
rtoes -12.8602
lfemur -17.5469 5.15301 -10.4249
ltibia 64.2609
lfoot -35.1968 -3.19206
ltoes -13.2233
163
root 1.36364 16.0026 -3.66543 -6.04103 3.95436 0.120597
lowerback 4.41742 -0.613321 -3.35259
upperback 0.181039 -0.95004 1.55056
thorax -2.21038 -0.432962 3.54116
lowerneck -19.0224 -1.86223 -2.51668
upperneck 23.3051 -1.92716 0.323617
head 10.6755 -1.06763 0.254762
rclavicle 8.94531e-015 7.95139e-016
rhumerus 25.7004 3.90888 -43.3737
rradius 69.3278
rwrist 9.49076
rhand 6.3849 -21.6728
rfingers 7.12502
rthumb 31.69 -48.9405
lclavicle 8.94531e-015 7.95139e-016
lhumerus 25.3068 -1.98432 59.8705
lradius 74.7039
lwrist -23.4009
lhand 14.2645 16.2729
lfingers 7.12502
lthumb 39.1589 41.7473
rfemur -15.5374 -15.9233 7.90107
rtibia 64.3984
rfoot -34.0537 0.893964
rtoes -12.919
lfemur -17.5348 5.13896 -10.4545
ltibia 64.2702
lfoot -35.205 -3.16517
ltoes -13.3102
